<?xml version="1.0" standalone="no"?>
<!DOCTYPE svg PUBLIC "-//W3C//DTD SVG 20010904//EN"
 "http://www.w3.org/TR/2001/REC-SVG-20010904/DTD/svg10.dtd">
<svg version="1.0" xmlns="http://www.w3.org/2000/svg"
 width="260.000000pt" height="260.000000pt" viewBox="0 0 260.000000 260.000000"
 preserveAspectRatio="xMidYMid meet">
<metadata>
Created by potrace 1.14, written by Peter Selinger 2001-2017
</metadata>
<g transform="translate(0.000000,260.000000) scale(0.100000,-0.100000)"
fill="#000000" stroke="none">
<path d="M2137 2520 c-77 -23 -131 -103 -108 -162 20 -53 105 -43 132 15 12
27 -3 74 -26 83 -20 8 -19 30 3 39 39 16 70 15 87 -1 20 -20 19 -107 -2 -199
-20 -87 -37 -100 -135 -104 -52 -2 -28 -21 25 -21 86 0 103 -39 84 -190 -16
-122 -41 -169 -92 -174 -30 -3 -85 11 -85 22 0 3 18 20 40 39 64 55 50 127
-25 127 -68 0 -106 -77 -73 -148 14 -33 83 -66 135 -66 151 0 278 145 242 275
-12 42 -59 91 -107 111 l-36 15 49 23 c64 29 122 93 130 143 4 21 8 43 9 48 5
15 -24 67 -48 89 -47 42 -129 57 -199 36z"/>
<path d="M1236 2019 c-144 -21 -371 -111 -466 -186 -133 -107 -213 -211 -260
-340 -69 -190 -53 -380 42 -516 59 -83 178 -76 178 10 0 29 -10 44 -59 92 -32
31 -69 77 -82 101 -44 85 -30 232 34 357 119 232 441 407 737 398 108 -3 178
-27 241 -83 183 -163 55 -493 -216 -557 -48 -11 -172 -11 -183 0 -5 4 110 480
126 523 3 10 -2 10 -23 2 -15 -6 -44 -13 -64 -16 -20 -3 -54 -10 -76 -15 -22
-4 -64 -9 -93 -9 -47 0 -53 -3 -62 -26 -15 -38 -13 -44 14 -44 49 0 62 -35 41
-110 -2 -8 -6 -26 -9 -40 -20 -111 -213 -845 -233 -887 -37 -74 -68 -100 -164
-132 -67 -23 -85 -33 -90 -52 -12 -42 -10 -48 14 -44 12 3 45 9 72 14 45 9
182 8 393 -2 65 -3 168 6 178 16 2 2 7 17 10 34 l6 31 -51 -10 c-58 -10 -187
-7 -185 5 1 4 39 158 85 342 l84 335 31 0 c31 0 31 0 68 -122 155 -504 235
-670 410 -843 137 -136 310 -194 469 -158 81 18 128 45 176 99 61 69 68 146
16 180 -52 34 -104 -2 -134 -91 -20 -58 -38 -81 -78 -100 -51 -25 -126 -21
-187 9 -151 74 -261 264 -415 717 -27 80 -66 180 -85 222 -20 42 -36 80 -36
84 0 5 11 10 25 11 55 4 193 59 254 99 140 94 222 231 222 368 0 143 -80 243
-245 302 -104 37 -291 51 -430 32z"/>
</g>
</svg>
